<svg width="188" height="44" viewBox="0 0 188 44" fill="none" xmlns="http://www.w3.org/2000/svg">
<g filter="url(#filter0_d_1_99)">
<path d="M12.1786 28.374C17.1278 28.374 20.7432 25.4542 20.7432 21.1603C20.7432 16.9008 17.3384 15.2519 14.1793 13.8092L12.4243 13.0191C9.61618 11.7481 6.9485 10.4427 6.9485 7.48856C6.9485 5.08397 8.80886 3.09161 12.0733 3.09161C14.9867 3.09161 17.5139 4.7061 19.0584 6.28626L19.62 4.3626C18.1809 3.53817 15.3377 2.54198 12.4594 2.54198C7.58032 2.54198 4.38611 5.35878 4.38611 9.1374C4.38611 13.2252 8.07173 15.0114 10.8447 16.2481L12.5998 17.0038C15.1973 18.1718 18.216 19.6489 18.216 22.9466C18.216 25.7634 15.8993 27.8244 12.4945 27.8244C9.65128 27.8244 6.31667 26.416 4.63182 24.3893L4 26.5534C5.57955 27.3435 9.12477 28.374 12.1786 28.374ZM25.5872 1.16794V27.9618H28.8867V0.137405H28.7463L25.5872 1.16794ZM32.6425 16.1107L33.2744 15.5611C36.0122 13.1908 38.2236 11.5763 40.9966 9.79008V9.72138H38.5746C37.1706 11.3359 35.6261 12.7099 32.8882 15.0458L29.7993 17.6565L40.9264 28.7176H41.1019V24.355L32.6425 16.1107ZM58.0207 9.72138C57.8101 11.8168 56.8623 15.1832 54.9669 19.6832L53.1416 23.9428L46.8234 9.72138H43.2431L51.4216 28.0649L50.2633 30.813C49.1752 33.355 47.034 34.2824 45.314 34.2824C44.7524 34.2824 44.1557 34.2137 43.5941 34.042L43.3835 36C46.5426 36 49.2454 34.7977 50.9302 30.8473L55.5636 19.9237C57.459 15.458 58.5823 12.6756 60.0565 9.72138H58.0207ZM83.7849 28.374C88.5586 28.374 92.139 26.0725 94.4557 22.3969L94.0344 22.1565C91.7528 25.5916 88.4182 26.8626 85.3645 26.8626C79.7132 26.8626 75.4659 22.3969 75.4659 14.8053C75.4659 8.10687 78.976 3.09161 84.3465 3.09161C87.7513 3.09161 90.5594 5.18703 92.3496 8.10687L94.1046 6.56107C92.1038 4.32824 88.664 2.54198 84.522 2.54198C77.1157 2.54198 71.5346 7.6603 71.5346 15.6641C71.5346 23.3931 76.7647 28.374 83.7849 28.374ZM106.917 28.374C112.392 28.374 116.499 24.5611 116.499 18.7557C116.499 12.916 112.568 9.30917 107.232 9.30917C101.757 9.30917 97.6498 13.1565 97.6498 18.9618C97.6498 24.8015 101.581 28.374 106.917 28.374ZM107.127 27.8931C103.652 27.8931 101.23 24.2519 101.23 18.7557C101.23 13.3283 103.512 9.79008 107.022 9.79008C110.497 9.79008 112.919 13.4656 112.919 18.9618C112.919 24.355 110.637 27.8931 107.127 27.8931ZM129.557 1.16794C130.575 1.16794 131.733 1.30535 133.313 1.99237L133.558 1.58015C131.768 0.515263 129.873 0 128.047 0C124.397 0 122.01 2.23282 122.01 6.49237V9.72138H119.307V10.4771H122.01V27.9618H125.345V10.4771H130.75L131.242 9.72138H125.345V6.32061C125.345 2.78245 126.924 1.16794 129.557 1.16794ZM143.632 1.16794C144.65 1.16794 145.809 1.30535 147.388 1.99237L147.634 1.58015C145.844 0.515263 143.948 0 142.123 0C138.472 0 136.086 2.23282 136.086 6.49237V9.72138H133.383V10.4771H136.086V27.9618H139.42V10.4771H144.826L145.317 9.72138H139.42V6.32061C139.42 2.78245 141 1.16794 143.632 1.16794ZM163.254 17.5534C163.324 12.7099 160.727 9.30917 155.672 9.30917C150.266 9.30917 146.23 13.1908 146.23 19.1336C146.23 24.6985 149.951 28.374 154.97 28.374C158.27 28.374 161.042 26.8282 163.043 23.8397L162.622 23.5992C161.007 25.8664 158.515 26.8969 156.409 26.8969C152.618 26.8969 149.775 23.874 149.775 18.1718V17.5534H163.254ZM155.391 9.82442C158.375 9.82442 160.27 12.6756 160.06 17.0038H149.81C150.161 12.813 152.337 9.82442 155.391 9.82442ZM183.999 17.5534C184.069 12.7099 181.471 9.30917 176.417 9.30917C171.011 9.30917 166.975 13.1908 166.975 19.1336C166.975 24.6985 170.695 28.374 175.715 28.374C179.014 28.374 181.787 26.8282 183.788 23.8397L183.367 23.5992C181.752 25.8664 179.26 26.8969 177.154 26.8969C173.363 26.8969 170.52 23.874 170.52 18.1718V17.5534H183.999ZM176.136 9.82442C179.12 9.82442 181.015 12.6756 180.804 17.0038H170.555C170.906 12.813 173.082 9.82442 176.136 9.82442Z" fill="white"/>
</g>
<defs>
<filter id="filter0_d_1_99" x="0" y="0" width="188" height="44" filterUnits="userSpaceOnUse" color-interpolation-filters="sRGB">
<feFlood flood-opacity="0" result="BackgroundImageFix"/>
<feColorMatrix in="SourceAlpha" type="matrix" values="0 0 0 0 0 0 0 0 0 0 0 0 0 0 0 0 0 0 127 0" result="hardAlpha"/>
<feOffset dy="4"/>
<feGaussianBlur stdDeviation="2"/>
<feComposite in2="hardAlpha" operator="out"/>
<feColorMatrix type="matrix" values="0 0 0 0 0 0 0 0 0 0 0 0 0 0 0 0 0 0 0.25 0"/>
<feBlend mode="normal" in2="BackgroundImageFix" result="effect1_dropShadow_1_99"/>
<feBlend mode="normal" in="SourceGraphic" in2="effect1_dropShadow_1_99" result="shape"/>
</filter>
</defs>
</svg>
